<svg width="25" height="25" viewBox="0 0 25 25" fill="none" xmlns="http://www.w3.org/2000/svg">
<path d="M24.8489 11.8663C22.4952 7.27383 17.8355 4.16663 12.5 4.16663C7.16447 4.16663 2.50345 7.276 0.151018 11.8667C0.0517306 12.0631 0 12.2801 0 12.5002C0 12.7202 0.0517306 12.9372 0.151018 13.1336C2.50475 17.7261 7.16447 20.8333 12.5 20.8333C17.8355 20.8333 22.4965 17.7239 24.8489 13.1332C24.9482 12.9368 25 12.7198 25 12.4997C25 12.2797 24.9482 12.0627 24.8489 11.8663ZM12.5 18.75C11.2638 18.75 10.0555 18.3834 9.02766 17.6966C7.99985 17.0099 7.19878 16.0338 6.72573 14.8917C6.25268 13.7497 6.12891 12.493 6.37007 11.2806C6.61123 10.0683 7.20648 8.95462 8.08056 8.08054C8.95464 7.20646 10.0683 6.61121 11.2807 6.37005C12.493 6.12889 13.7497 6.25266 14.8917 6.72571C16.0338 7.19876 17.0099 7.99984 17.6967 9.02764C18.3834 10.0555 18.75 11.2638 18.75 12.5C18.7504 13.3208 18.589 14.1337 18.275 14.8922C17.9611 15.6507 17.5007 16.3398 16.9203 16.9203C16.3398 17.5007 15.6507 17.9611 14.8922 18.275C14.1338 18.589 13.3208 18.7504 12.5 18.75ZM12.5 8.33329C12.1281 8.33849 11.7586 8.39382 11.4015 8.49779C11.6958 8.89782 11.8371 9.3901 11.7996 9.88535C11.7621 10.3806 11.5484 10.846 11.1972 11.1972C10.846 11.5484 10.3806 11.7621 9.88537 11.7996C9.39012 11.8371 8.89784 11.6958 8.49781 11.4014C8.27001 12.2407 8.31113 13.1302 8.61538 13.9448C8.91962 14.7595 9.47167 15.4582 10.1938 15.9426C10.916 16.4271 11.7719 16.6729 12.641 16.6454C13.5102 16.618 14.3489 16.3187 15.039 15.7896C15.7291 15.2605 16.236 14.5283 16.4882 13.6961C16.7404 12.8639 16.7253 11.9736 16.445 11.1504C16.1647 10.3272 15.6333 9.61265 14.9256 9.1073C14.2179 8.60195 13.3696 8.33125 12.5 8.33329Z" fill="#837E7E"/>
</svg>
